<svg width="512" height="512" viewBox="0 0 512 512" fill="none" xmlns="http://www.w3.org/2000/svg">
<g clip-path="url(#clip0_1_5)">
<circle cx="256" cy="256" r="256" fill="#51B37F"/>
<path d="M255.5 170.282L242.639 157.065C212.45 126.041 157.096 136.747 137.114 175.752C128.469 192.645 125.993 216.46 139.051 246.534H119.715C81.5449 144.369 194.423 88.184 252.343 141.499C253.419 142.486 254.477 143.508 255.5 144.566C256.512 143.509 257.565 142.492 258.656 141.517C316.594 88.184 429.454 144.369 391.284 246.534H371.948C385.006 216.46 382.531 192.645 373.885 175.752C353.903 136.747 298.549 126.023 268.361 157.048L255.5 170.282ZM151.679 300.334H175.267C194.388 321.549 220.522 344.414 255.5 368.39C290.459 344.414 316.611 321.549 335.732 300.334H359.32C336.629 328.417 302.997 358.617 255.5 390C208.002 358.617 174.37 328.417 151.679 300.334Z" fill="white"/>
<path d="M299.695 180.431C298.999 178.694 297.777 177.219 296.201 176.212C294.625 175.204 292.773 174.714 290.905 174.811C289.037 174.908 287.245 175.587 285.782 176.752C284.319 177.917 283.256 179.511 282.744 181.309L254.08 281.61L227.946 216.297C227.337 214.782 226.326 213.462 225.022 212.479C223.718 211.496 222.17 210.888 220.546 210.72C218.922 210.552 217.282 210.831 215.804 211.526C214.327 212.221 213.067 213.307 212.161 214.665L178.942 264.466H120.969C118.59 264.466 116.309 265.41 114.627 267.092C112.945 268.773 112 271.054 112 273.432C112 275.81 112.945 278.091 114.627 279.773C116.309 281.454 118.59 282.399 120.969 282.399H183.749C185.226 282.398 186.68 282.033 187.981 281.335C189.283 280.637 190.392 279.629 191.211 278.4L217.632 238.785L247.174 312.634C247.87 314.37 249.092 315.846 250.668 316.853C252.244 317.861 254.096 318.351 255.964 318.254C257.832 318.157 259.624 317.478 261.087 316.313C262.55 315.148 263.613 313.554 264.125 311.756L292.789 211.455L318.923 276.768C319.589 278.43 320.738 279.855 322.222 280.858C323.705 281.862 325.455 282.398 327.246 282.399H390.026C392.405 282.399 394.686 281.454 396.368 279.773C398.05 278.091 398.995 275.81 398.995 273.432C398.995 271.054 398.05 268.773 396.368 267.092C394.686 265.41 392.405 264.466 390.026 264.466H333.309L299.695 180.431Z" fill="white"/>
</g>
<defs>
<clipPath id="clip0_1_5">
<rect width="512" height="512" fill="white"/>
</clipPath>
</defs>
</svg>
